<?xml version="1.0" encoding="UTF-8" standalone="no"?>
<!-- Created with Inkscape (http://www.inkscape.org/) -->

<svg
   width="264.32901mm"
   height="99.534142mm"
   viewBox="0 0 264.32901 99.534141"
   version="1.1"
   id="svg5"
   xml:space="preserve"
   xmlns="http://www.w3.org/2000/svg"
   xmlns:svg="http://www.w3.org/2000/svg"><defs
     id="defs2" /><g
     id="layer1"
     transform="translate(21.170203,44.179054)"><g
       id="g1984-2-7"
       transform="translate(-7.861731,-36.355079)"
       style="opacity:1;fill:none;fill-rule:nonzero;stroke:none;stroke-width:0;stroke-linecap:butt;stroke-linejoin:miter;stroke-miterlimit:10;stroke-dasharray:none"><g
         style="opacity:1;fill:none;fill-rule:nonzero;stroke:none;stroke-width:0;stroke-linecap:butt;stroke-linejoin:miter;stroke-miterlimit:10;stroke-dasharray:none"
         transform="matrix(0.88703357,0,0,0.88703357,-25.358121,-7.823675)"
         id="g232-9-6">
	<path
   id="path228-98-7"
   style="opacity:1;fill:#ff3b3f;fill-opacity:1;fill-rule:nonzero;stroke:none;stroke-width:1;stroke-linecap:butt;stroke-linejoin:miter;stroke-miterlimit:10;stroke-dasharray:none"
   d="m 45.000327,-3.3841104e-4 c -17.322982,0 -31.416119,14.09313741104 -31.416119,31.41611941104 0,4.817996 1.063046,9.442359 3.175044,13.773354 2.904997,5.830995 11.407903,20.207035 20.411894,35.42802 l 4.385148,7.417009 c 0.718999,1.217999 2.029035,1.965636 3.444033,1.965636 1.414999,0 2.72434,-0.747637 3.443339,-1.965636 l 4.382368,-7.412839 C 61.769025,65.50534 70.21785,51.221155 73.178847,45.312161 c 0.027,-0.051 0.05493,-0.102999 0.07993,-0.154999 2.093998,-4.302995 3.156973,-8.926385 3.156973,-13.741381 0,-17.322982 -14.092442,-31.41611941104 -31.415425,-31.41611941104 z m 0,14.94105841104 c 8.473992,0 15.367827,6.895226 15.367827,15.369217 0,8.473992 -6.893835,15.367827 -15.367827,15.367827 -8.473991,0 -15.369217,-6.893835 -15.369217,-15.367827 0,-8.473991 6.895226,-15.369217 15.369217,-15.369217 z" />
	
</g><g
         aria-label="fynd"
         id="text403-71-1"
         style="font-size:98.3539px;font-family:futura;-inkscape-font-specification:futura;fill:#ff3b3f;stroke-width:0.384196"><path
           d="m 75.754071,49.024577 q 0,2.458848 0.196708,4.130864 0.196708,1.573662 0.983539,2.557201 0.786831,0.983539 2.557201,1.573663 1.868724,0.590123 5.114403,0.983539 0.590123,0.09835 0.885185,0.590123 0.295062,0.393416 0.295062,0.983539 0,0.49177 -0.295062,0.885185 -0.295062,0.49177 -0.786831,0.49177 -3.934156,0 -7.081481,-0.393416 -3.048971,-0.295062 -5.999588,-0.295062 -3.147324,0 -6.294649,0.295062 -3.147325,0.393416 -6.097942,0.393416 -0.590123,0 -0.885185,-0.49177 -0.295061,-0.393415 -0.295061,-0.885185 0,-0.590123 0.295061,-0.983539 0.295062,-0.491769 0.983539,-0.590123 2.655556,-0.295062 4.03251,-0.786832 1.475309,-0.590123 2.163786,-1.573662 0.688477,-0.983539 0.786831,-2.557201 0.196708,-1.573663 0.196708,-4.03251 V 22.370671 q 0,-1.376954 -0.196708,-1.573662 -0.196708,-0.295062 -1.475308,-0.295062 h -4.917695 q -0.590124,0 -0.885185,-0.491769 -0.295062,-0.590124 -0.295062,-1.180247 0,-0.688477 0.295062,-1.278601 0.393415,-0.590123 0.983539,-0.688477 l 5.31111,-0.491769 q 0.393416,0 0.590123,-0.09835 0.295062,-0.09835 0.393416,-0.393416 0.196708,-0.393416 0.196708,-1.180247 0,-0.885185 0,-2.360493 0,-4.3275717 1.2786,-7.9666659 1.376955,-3.73744812 3.934156,-6.3930033 2.557202,-2.7539092 6.29465,-4.2292176 3.737448,-1.5736624 8.556789,-1.5736624 2.458847,0 4.819341,0.4917695 2.458847,0.4917695 4.327571,1.6720163 1.967078,1.0818928 3.147325,2.9506169 1.180243,1.77037012 1.180243,4.4259253 0,1.7703702 -1.376951,3.0489709 -1.376954,1.2786006 -3.344032,1.2786006 -1.672017,0 -3.048971,-0.7868312 -1.278601,-0.885185 -1.278601,-2.5572013 0,-1.4753084 0.393416,-1.86872403 0.491769,-0.49176949 0.491769,-1.18024676 0,-1.96707791 -1.672016,-2.95061691 -1.672016,-0.983539 -4.229218,-0.983539 -3.835802,0 -5.901233,1.6720163 -2.065432,1.67201622 -3.048971,4.2292175 -0.983539,2.5572014 -1.180247,5.6061722 -0.09835,2.9506169 -0.09835,5.6061719 v 1.868724 q 0,1.180247 0.196708,1.475309 0.196708,0.196708 1.278601,0.196708 h 9.540328 q 0.590123,0 0.885185,0.688477 0.295061,0.590123 0.295061,1.376954 0,0.786832 -0.295061,1.475309 -0.295062,0.590123 -0.885185,0.590123 H 77.22938 q -1.081893,0 -1.278601,0.295062 -0.196708,0.196708 -0.196708,1.573662 z"
           style="font-family:'Plantagenet Cherokee';-inkscape-font-specification:'Plantagenet Cherokee'"
           id="path3261" /><path
           d="m 117.84936,48.041038 q 0.29507,0.590124 0.68848,0.49177 0.49177,-0.09835 0.68848,-0.49177 3.04897,-5.999587 5.31111,-11.507406 2.36049,-5.606172 4.13086,-10.720574 0.68848,-1.672017 0.68848,-2.950617 0,-1.081893 -0.59012,-1.77037 -0.49177,-0.688478 -1.37696,-1.081893 -0.78683,-0.393416 -1.77037,-0.590124 -0.88518,-0.196707 -1.57366,-0.295061 -0.59012,-0.09835 -0.88518,-0.49177 -0.19671,-0.491769 -0.19671,-0.983539 0,-0.491769 0.29506,-0.885185 0.29506,-0.393415 0.78683,-0.393415 1.86872,0 3.8358,0.295061 1.96708,0.196708 3.93416,0.196708 2.26214,0 4.62263,-0.196708 2.36049,-0.295061 3.73745,-0.295061 0.49177,0 0.68848,0.393415 0.29506,0.393416 0.29506,0.983539 0,0.49177 -0.29506,0.983539 -0.19671,0.393416 -0.68848,0.393416 -1.47531,0.196707 -2.45885,0.688477 -0.98354,0.491769 -1.67201,1.475308 -0.68848,0.885185 -1.37696,2.360494 -0.68848,1.376954 -1.57366,3.344032 -2.85226,6.196296 -5.90124,13.277777 -3.04897,6.983126 -6.49135,14.359668 -3.14733,6.884773 -6.49136,13.474484 -3.24568,6.688065 -6.29465,12.490945 -0.78683,1.475309 -1.96708,3.344033 -1.18024,1.967078 -2.85226,3.639094 -1.57366,1.77037 -3.639094,2.950617 -2.065432,1.180247 -4.524279,1.180247 -2.26214,0 -4.327572,-1.278601 -2.065432,-1.180247 -2.065432,-3.934156 0,-2.065432 1.278601,-3.54074 1.278601,-1.475309 3.344032,-1.475309 0.885185,0 1.376955,0.295062 0.491769,0.393416 0.885185,0.786831 0.49177,0.393416 0.983539,0.688478 0.590123,0.393415 1.376955,0.393415 1.081892,0 2.45885,-1.376954 1.37695,-1.376955 2.85226,-3.540741 1.57366,-2.065432 3.04897,-4.720987 1.57366,-2.557201 2.85226,-5.016049 1.2786,-2.458847 2.16379,-4.425925 0.98354,-1.967078 1.37695,-2.852263 0.49177,-1.180247 0.49177,-2.065432 0,-0.983539 -0.39341,-1.77037 -3.14733,-6.491357 -6.98313,-14.458023 -3.8358,-7.966665 -7.278187,-15.933331 -0.983539,-2.360494 -1.77037,-3.835802 -0.786831,-1.475309 -1.672016,-2.360494 -0.786832,-0.885185 -1.868725,-1.376954 -1.081892,-0.49177 -2.753909,-0.786831 -0.491769,-0.09835 -0.688477,-0.49177 -0.295062,-0.491769 -0.295062,-0.983539 0,-0.491769 0.295062,-0.885185 0.295062,-0.393415 0.786831,-0.393415 3.048971,0 5.80288,0.295061 2.852263,0.196708 5.704523,0.196708 2.85227,0 5.60618,-0.196708 2.7539,-0.295061 5.60617,-0.295061 0.49177,0 0.68847,0.393415 0.29507,0.393416 0.29507,0.885185 0,0.49177 -0.29507,0.983539 -0.1967,0.393416 -0.68847,0.49177 -3.14733,0.393415 -4.42593,1.180246 -1.2786,0.786832 -1.2786,2.163786 0,1.967078 0.88519,4.130864 2.06543,5.507818 4.52428,11.015636 2.45884,5.507819 5.01604,10.425513 z"
           style="font-family:'Plantagenet Cherokee';-inkscape-font-specification:'Plantagenet Cherokee'"
           id="path3263" /><path
           d="m 158.96129,48.82787 q 0,2.458847 0.0984,4.130863 0.0984,1.672016 0.49177,2.753909 0.49177,1.081893 1.47531,1.672017 1.08189,0.590123 2.95062,0.885185 0.59012,0.09835 0.88518,0.590123 0.29506,0.393416 0.29506,0.983539 0,0.49177 -0.29506,0.885185 -0.29506,0.49177 -0.88518,0.49177 -0.98354,0 -3.73745,-0.393416 -2.65556,-0.295062 -5.60617,-0.295062 -3.14733,0 -6.09794,0.295062 -2.95062,0.393416 -5.50782,0.393416 -0.49177,0 -0.78683,-0.49177 -0.29507,-0.393415 -0.29507,-0.885185 0,-0.590123 0.29507,-0.983539 0.29506,-0.491769 0.88518,-0.590123 2.45885,-0.295062 3.73745,-0.786832 1.37695,-0.491769 1.96708,-1.475308 0.68847,-0.983539 0.78683,-2.557201 0.0983,-1.573663 0.0983,-4.03251 V 37.025402 q 0,-4.819341 -0.0983,-7.966666 -0.0984,-3.245678 -0.68848,-5.114402 -0.59012,-1.868724 -1.86872,-2.557202 -1.2786,-0.786831 -3.6391,-0.786831 -0.59012,0 -0.98354,-0.393416 -0.29506,-0.393415 -0.29506,-0.885185 0,-0.590123 0.29506,-0.983539 0.39342,-0.393415 0.98354,-0.393415 1.86873,0 5.40947,-0.590124 3.63909,-0.590123 7.37654,-1.672016 1.37695,-0.393415 2.06543,0.590124 0.68848,0.885185 0.68848,2.065431 v 3.934156 q 0,0.196708 0.0984,0.295062 0.19671,0 0.29506,-0.196708 0.68848,-1.081893 1.86873,-2.360493 1.2786,-1.376955 2.95061,-2.557202 1.77037,-1.180246 3.93416,-1.967078 2.16379,-0.786831 4.81934,-0.786831 7.37654,0 11.50741,4.130864 4.22922,4.03251 4.22922,13.179422 V 48.82787 q 0,2.655555 0.0983,4.327571 0.19671,1.672016 0.68848,2.753909 0.59012,0.983539 1.67201,1.573662 1.18025,0.49177 3.24568,0.786832 0.59012,0.09835 0.88519,0.590123 0.29506,0.393416 0.29506,0.983539 0,0.49177 -0.29506,0.885185 -0.29507,0.49177 -0.88519,0.49177 -1.2786,0 -4.22922,-0.393416 -2.85226,-0.295062 -5.80288,-0.295062 -3.14732,0 -5.99958,0.295062 -2.85227,0.393416 -4.72099,0.393416 -0.49177,0 -0.78683,-0.49177 -0.29506,-0.393415 -0.29506,-0.885185 0,-0.590123 0.29506,-0.983539 0.29506,-0.491769 0.88518,-0.590123 2.16379,-0.295062 3.24568,-0.885185 1.18025,-0.590124 1.67202,-1.573663 0.59012,-1.081893 0.68847,-2.557201 0.0984,-1.573662 0.0984,-3.835802 V 34.468201 q 0,-2.458848 -0.19671,-4.917695 -0.19671,-2.458848 -1.08189,-4.425926 -0.88519,-1.967078 -2.5572,-3.245678 -1.67202,-1.278601 -4.62264,-1.278601 -2.95061,0 -5.21275,0.983539 -2.16379,0.885185 -3.73745,2.458847 -1.47531,1.573663 -2.26214,3.737449 -0.78683,2.065431 -0.78683,4.425925 z"
           style="font-family:'Plantagenet Cherokee';-inkscape-font-specification:'Plantagenet Cherokee'"
           id="path3265" /><path
           d="m 233.51348,23.649272 q -1.86872,-2.360494 -4.03251,-3.442387 -2.16378,-1.180246 -5.21275,-1.180246 -2.95062,0 -5.31111,0.885185 -2.3605,0.885185 -4.03251,3.048971 -1.57367,2.163785 -2.45885,5.901233 -0.78683,3.737449 -0.78683,9.441975 0,3.344032 0.68847,6.589711 0.68848,3.147324 1.96708,5.704526 1.37696,2.458847 3.24568,4.032509 1.96708,1.475309 4.52428,1.475309 4.13086,0 6.78642,-1.376955 2.75391,-1.475308 4.62263,-3.737448 z m 9.24527,19.965841 q 0,4.03251 0.0984,6.589711 0.19671,2.458848 0.88519,3.934156 0.78683,1.376955 2.26214,1.967078 1.47531,0.491769 4.13086,0.491769 0.39342,0 0.59012,0.49177 0.29507,0.393415 0.29507,0.983539 0,0.491769 -0.19671,0.983539 -0.19671,0.491769 -0.68848,0.491769 -0.78683,0 -1.37695,0.09835 -0.49177,0 -1.0819,0.09835 -0.49177,0 -1.18024,0.09835 -0.59013,0.09835 -1.57367,0.196708 -0.78683,0.09835 -2.16378,0.393415 -1.37696,0.295062 -2.85226,0.590124 -1.47531,0.295061 -2.75391,0.491769 -1.2786,0.196708 -1.67202,0.196708 -0.78683,0 -1.2786,-1.376954 -0.49177,-1.376955 -0.49177,-3.835802 0,-0.49177 -0.29506,-0.393416 -0.19671,0.09835 -0.39342,0.295062 -3.04897,2.753909 -5.90123,4.032509 -2.85226,1.278601 -6.98313,1.278601 -4.32757,0 -7.86831,-1.475308 -3.44239,-1.573663 -5.90123,-4.327572 -2.3605,-2.852263 -3.73745,-6.884773 -1.2786,-4.032509 -1.2786,-9.048558 0,-6.589711 2.06543,-11.310698 2.06543,-4.819341 5.40946,-7.868312 3.34404,-3.147325 7.4749,-4.622633 4.22922,-1.475309 8.36008,-1.475309 1.96708,0 4.32757,0.49177 2.3605,0.393415 4.52428,1.475308 v -5.999588 q 0,-4.2292171 -0.19671,-6.6880645 -0.1967,-2.5572013 -1.08189,-3.93415591 -0.78683,-1.37695459 -2.5572,-1.86872409 -1.67202,-0.4917694 -4.62263,-0.7868311 -0.39342,0 -0.68848,-0.4917695 -0.19671,-0.4917695 -0.19671,-0.983539 0,-0.4917695 0.19671,-0.983539 0.19671,-0.4917694 0.68848,-0.4917694 1.67201,-0.098354 3.63909,-0.1967078 1.96708,-0.1967078 4.03251,-0.3934156 2.06543,-0.1967078 4.03251,-0.5901234 1.96708,-0.3934156 3.73745,-0.8851851 1.2786,-0.3934156 1.67201,0.1967078 0.49177,0.4917695 0.59013,1.0818929 z"
           style="font-family:'Plantagenet Cherokee';-inkscape-font-specification:'Plantagenet Cherokee'"
           id="path3267" /></g></g></g></svg>
